<svg xmlns="http://www.w3.org/2000/svg" xmlns:xlink="http://www.w3.org/1999/xlink" width="500" zoomAndPan="magnify" viewBox="0 0 375 374.999991" height="500" preserveAspectRatio="xMidYMid meet" version="1.0"><defs><clipPath id="84b98c6cd5"><path d="M 43.296875 24 L 332.046875 24 L 332.046875 269.929688 L 43.296875 269.929688 Z M 43.296875 24 " clip-rule="nonzero"/></clipPath><clipPath id="6994cd7c3f"><path d="M 66.476562 112.019531 L 308.726562 112.019531 L 308.726562 354.269531 L 66.476562 354.269531 Z M 66.476562 112.019531 " clip-rule="nonzero"/></clipPath><clipPath id="66e8f24b35"><path d="M 109.003906 283.914062 L 127 283.914062 L 127 298.164062 L 109.003906 298.164062 Z M 109.003906 283.914062 " clip-rule="nonzero"/></clipPath><clipPath id="a90f802876"><path d="M 111 310.484375 L 125.734375 310.484375 L 125.734375 324.734375 L 111 324.734375 Z M 111 310.484375 " clip-rule="nonzero"/></clipPath><clipPath id="a5cf6740d7"><path d="M 165.78125 214.871094 L 209.28125 214.871094 L 209.28125 236.621094 L 165.78125 236.621094 Z M 165.78125 214.871094 " clip-rule="nonzero"/></clipPath></defs><g clip-path="url(#84b98c6cd5)"><path fill="#000000" d="M 259.859375 190.769531 C 259.859375 202.722656 250.171875 212.398438 238.199219 212.398438 C 226.253906 212.398438 216.5625 202.722656 216.5625 190.769531 C 216.5625 178.820312 226.253906 169.144531 238.199219 169.144531 C 250.171875 169.144531 259.859375 178.820312 259.859375 190.769531 Z M 158.808594 190.769531 C 158.808594 202.722656 149.09375 212.398438 137.148438 212.398438 C 125.175781 212.398438 115.484375 202.722656 115.484375 190.769531 C 115.484375 178.820312 125.175781 169.144531 137.148438 169.144531 C 149.09375 169.144531 158.808594 178.820312 158.808594 190.769531 Z M 288.75 226.804688 C 288.726562 242.726562 275.804688 255.625 259.859375 255.625 L 115.484375 255.625 C 99.539062 255.625 86.621094 242.726562 86.621094 226.804688 L 86.621094 154.738281 C 86.621094 138.816406 99.539062 125.917969 115.484375 125.894531 L 259.859375 125.894531 C 275.804688 125.917969 288.726562 138.816406 288.75 154.738281 Z M 310.386719 169.144531 L 303.15625 169.144531 L 303.15625 154.738281 C 303.15625 130.859375 283.777344 111.484375 259.859375 111.484375 L 202.105469 111.484375 L 202.105469 78.675781 C 215.921875 70.714844 220.664062 53.082031 212.667969 39.289062 C 204.695312 25.492188 187.058594 20.785156 173.242188 28.742188 C 159.421875 36.703125 154.679688 54.335938 162.679688 68.105469 C 165.191406 72.507812 168.855469 76.140625 173.242188 78.675781 L 173.242188 111.484375 L 115.484375 111.484375 C 91.566406 111.484375 72.164062 130.859375 72.164062 154.738281 L 72.164062 169.144531 L 64.960938 169.144531 C 52.988281 169.144531 43.296875 178.820312 43.296875 190.769531 C 43.296875 202.722656 52.988281 212.398438 64.960938 212.398438 L 72.164062 212.398438 L 72.164062 226.804688 C 72.164062 250.683594 91.566406 270.058594 115.484375 270.058594 L 259.859375 270.058594 C 283.777344 270.058594 303.15625 250.683594 303.15625 226.804688 L 303.15625 212.398438 L 310.386719 212.398438 C 322.359375 212.398438 332.046875 202.722656 332.046875 190.769531 C 332.046875 178.820312 322.359375 169.144531 310.386719 169.144531 " fill-opacity="1" fill-rule="nonzero"/></g><g clip-path="url(#6994cd7c3f)"><path fill="#000000" d="M 66.476562 147.644531 C 66.476562 127.96875 82.425781 112.019531 102.101562 112.019531 L 273.101562 112.019531 C 292.773438 112.019531 308.726562 127.96875 308.726562 147.644531 L 308.726562 318.644531 C 308.726562 338.320312 292.773438 354.269531 273.101562 354.269531 L 102.101562 354.269531 C 82.425781 354.269531 66.476562 338.320312 66.476562 318.644531 Z M 102.101562 126.269531 C 90.296875 126.269531 80.726562 135.839844 80.726562 147.644531 L 80.726562 318.644531 C 80.726562 330.449219 90.296875 340.019531 102.101562 340.019531 L 273.101562 340.019531 C 284.90625 340.019531 294.476562 330.449219 294.476562 318.644531 L 294.476562 147.644531 C 294.476562 135.839844 284.90625 126.269531 273.101562 126.269531 Z M 102.101562 126.269531 " fill-opacity="1" fill-rule="evenodd"/></g><path stroke-linecap="round" transform="matrix(-0.749277, 0.000000000000001423, -0.000000000000001424, -0.75, 265.99191, 292.885529)" fill="none" stroke-linejoin="miter" d="M 2.502041 2.498414 L 159.658694 2.498414 " stroke="#000000" stroke-width="5" stroke-opacity="1" stroke-miterlimit="4"/><path stroke-linecap="round" transform="matrix(-0.749277, 0.000000000000000757, -0.000000000000000758, -0.75, 265.99191, 319.448065)" fill="none" stroke-linejoin="miter" d="M 2.502041 2.498461 L 159.658694 2.498461 " stroke="#000000" stroke-width="5" stroke-opacity="1" stroke-miterlimit="4"/><g clip-path="url(#66e8f24b35)"><path fill="#000000" d="M 126.210938 284.425781 L 126.097656 284.34375 C 125.738281 284.046875 125.292969 283.921875 124.875 283.960938 C 124.429688 284.003906 124.023438 284.203125 123.734375 284.554688 L 119.972656 289.027344 L 117.746094 291.746094 L 116.117188 293.730469 L 115.003906 292.53125 L 114.378906 291.871094 L 112.179688 289.550781 C 111.859375 289.210938 111.441406 289.042969 110.996094 289.015625 C 110.578125 288.988281 110.132812 289.167969 109.8125 289.480469 L 109.699219 289.589844 C 109.019531 290.226562 109.003906 291.324219 109.628906 291.996094 L 111.800781 294.304688 L 112.429688 294.996094 L 114.933594 297.65625 C 115.226562 297.949219 115.617188 298.148438 115.992188 298.160156 C 116.019531 298.160156 116.019531 298.160156 116.035156 298.160156 C 116.0625 298.160156 116.078125 298.160156 116.117188 298.160156 C 116.117188 298.160156 116.117188 298.160156 116.144531 298.160156 C 116.214844 298.160156 116.269531 298.160156 116.355469 298.160156 C 116.800781 298.117188 117.203125 297.921875 117.496094 297.570312 L 121.226562 293.09375 L 122.6875 291.308594 L 126.417969 286.832031 C 127.003906 286.117188 126.921875 285.046875 126.210938 284.425781 Z M 126.210938 284.425781 " fill-opacity="1" fill-rule="nonzero"/></g><g clip-path="url(#a90f802876)"><path fill="#000000" d="M 120.261719 317.683594 L 124.992188 313.035156 C 125.554688 312.484375 125.554688 311.589844 124.992188 311.039062 C 124.433594 310.488281 123.523438 310.488281 122.964844 311.039062 L 118.230469 315.6875 L 113.5 311.039062 C 112.9375 310.488281 112.027344 310.488281 111.46875 311.039062 C 110.90625 311.589844 110.90625 312.484375 111.46875 313.035156 L 116.199219 317.683594 L 111.457031 322.34375 C 110.894531 322.894531 110.894531 323.785156 111.457031 324.335938 C 111.734375 324.613281 112.105469 324.75 112.472656 324.75 C 112.839844 324.75 113.207031 324.613281 113.488281 324.335938 L 118.230469 319.679688 L 122.960938 324.328125 C 123.242188 324.601562 123.609375 324.738281 123.976562 324.738281 C 124.34375 324.738281 124.710938 324.601562 124.992188 324.328125 C 125.554688 323.777344 125.554688 322.882812 124.992188 322.332031 Z M 120.261719 317.683594 " fill-opacity="1" fill-rule="nonzero"/></g><g clip-path="url(#a5cf6740d7)"><path fill="#000000" d="M 209.261719 214.871094 L 209.261719 214.972656 C 209.261719 217.894531 208.6875 220.730469 207.554688 223.398438 C 206.457031 225.976562 204.890625 228.292969 202.894531 230.28125 C 200.902344 232.269531 198.578125 233.828125 195.988281 234.917969 C 193.3125 236.046875 190.464844 236.621094 187.53125 236.621094 C 184.597656 236.621094 181.753906 236.046875 179.074219 234.917969 C 176.488281 233.828125 174.164062 232.269531 172.167969 230.28125 C 170.171875 228.292969 168.605469 225.976562 167.511719 223.398438 C 166.378906 220.730469 165.804688 217.894531 165.804688 214.972656 L 165.804688 214.871094 Z M 209.261719 214.871094 " fill-opacity="1" fill-rule="nonzero"/></g></svg>