<svg xmlns="http://www.w3.org/2000/svg" xmlns:xlink="http://www.w3.org/1999/xlink" width="500" zoomAndPan="magnify" viewBox="0 0 375 374.999991" height="500" preserveAspectRatio="xMidYMid meet" version="1.0"><defs><clipPath id="037948eccd"><path d="M 43.296875 24 L 332.046875 24 L 332.046875 269.929688 L 43.296875 269.929688 Z M 43.296875 24 " clip-rule="nonzero"/></clipPath><clipPath id="164861e6db"><path d="M 66.476562 111.269531 L 308.726562 111.269531 L 308.726562 353.519531 L 66.476562 353.519531 Z M 66.476562 111.269531 " clip-rule="nonzero"/></clipPath><clipPath id="e2b7667301"><path d="M 109.003906 283.914062 L 127 283.914062 L 127 298.164062 L 109.003906 298.164062 Z M 109.003906 283.914062 " clip-rule="nonzero"/></clipPath><clipPath id="945c3150d0"><path d="M 111 310.484375 L 125.734375 310.484375 L 125.734375 324.734375 L 111 324.734375 Z M 111 310.484375 " clip-rule="nonzero"/></clipPath><clipPath id="c4e45bef8c"><path d="M 165.78125 214.871094 L 209.28125 214.871094 L 209.28125 236.621094 L 165.78125 236.621094 Z M 165.78125 214.871094 " clip-rule="nonzero"/></clipPath><clipPath id="9eea124505"><path d="M 110.734375 166.828125 L 159.035156 166.828125 L 159.035156 214.871094 L 110.734375 214.871094 Z M 110.734375 166.828125 " clip-rule="nonzero"/></clipPath><clipPath id="afc4d19106"><path d="M 216.191406 164.980469 L 264.496094 164.980469 L 264.496094 213.019531 L 216.191406 213.019531 Z M 216.191406 164.980469 " clip-rule="nonzero"/></clipPath><clipPath id="964b443d57"><path d="M 108.375 153 L 162.375 153 L 162.375 206.925781 L 108.375 206.925781 Z M 108.375 153 " clip-rule="nonzero"/></clipPath><clipPath id="3fb061b077"><path d="M 213.558594 153 L 267.558594 153 L 267.558594 206.925781 L 213.558594 206.925781 Z M 213.558594 153 " clip-rule="nonzero"/></clipPath></defs><g clip-path="url(#037948eccd)"><path fill="#000000" d="M 259.859375 190.769531 C 259.859375 202.722656 250.171875 212.398438 238.199219 212.398438 C 226.253906 212.398438 216.5625 202.722656 216.5625 190.769531 C 216.5625 178.820312 226.253906 169.144531 238.199219 169.144531 C 250.171875 169.144531 259.859375 178.820312 259.859375 190.769531 Z M 158.808594 190.769531 C 158.808594 202.722656 149.09375 212.398438 137.148438 212.398438 C 125.175781 212.398438 115.484375 202.722656 115.484375 190.769531 C 115.484375 178.820312 125.175781 169.144531 137.148438 169.144531 C 149.09375 169.144531 158.808594 178.820312 158.808594 190.769531 Z M 288.75 226.804688 C 288.726562 242.726562 275.804688 255.625 259.859375 255.625 L 115.484375 255.625 C 99.539062 255.625 86.621094 242.726562 86.621094 226.804688 L 86.621094 154.738281 C 86.621094 138.816406 99.539062 125.917969 115.484375 125.894531 L 259.859375 125.894531 C 275.804688 125.917969 288.726562 138.816406 288.75 154.738281 Z M 310.386719 169.144531 L 303.15625 169.144531 L 303.15625 154.738281 C 303.15625 130.859375 283.777344 111.484375 259.859375 111.484375 L 202.105469 111.484375 L 202.105469 78.675781 C 215.921875 70.714844 220.664062 53.082031 212.667969 39.289062 C 204.695312 25.492188 187.058594 20.785156 173.242188 28.742188 C 159.421875 36.703125 154.679688 54.335938 162.679688 68.105469 C 165.191406 72.507812 168.855469 76.140625 173.242188 78.675781 L 173.242188 111.484375 L 115.484375 111.484375 C 91.566406 111.484375 72.164062 130.859375 72.164062 154.738281 L 72.164062 169.144531 L 64.960938 169.144531 C 52.988281 169.144531 43.296875 178.820312 43.296875 190.769531 C 43.296875 202.722656 52.988281 212.398438 64.960938 212.398438 L 72.164062 212.398438 L 72.164062 226.804688 C 72.164062 250.683594 91.566406 270.058594 115.484375 270.058594 L 259.859375 270.058594 C 283.777344 270.058594 303.15625 250.683594 303.15625 226.804688 L 303.15625 212.398438 L 310.386719 212.398438 C 322.359375 212.398438 332.046875 202.722656 332.046875 190.769531 C 332.046875 178.820312 322.359375 169.144531 310.386719 169.144531 " fill-opacity="1" fill-rule="nonzero"/></g><g clip-path="url(#164861e6db)"><path fill="#000000" d="M 66.476562 146.894531 C 66.476562 127.21875 82.425781 111.269531 102.101562 111.269531 L 273.101562 111.269531 C 292.773438 111.269531 308.726562 127.21875 308.726562 146.894531 L 308.726562 317.894531 C 308.726562 337.570312 292.773438 353.519531 273.101562 353.519531 L 102.101562 353.519531 C 82.425781 353.519531 66.476562 337.570312 66.476562 317.894531 Z M 102.101562 125.519531 C 90.296875 125.519531 80.726562 135.089844 80.726562 146.894531 L 80.726562 317.894531 C 80.726562 329.699219 90.296875 339.269531 102.101562 339.269531 L 273.101562 339.269531 C 284.90625 339.269531 294.476562 329.699219 294.476562 317.894531 L 294.476562 146.894531 C 294.476562 135.089844 284.90625 125.519531 273.101562 125.519531 Z M 102.101562 125.519531 " fill-opacity="1" fill-rule="evenodd"/></g><path stroke-linecap="round" transform="matrix(-0.749277, 0.000000000000001423, -0.000000000000001424, -0.75, 265.99191, 292.885529)" fill="none" stroke-linejoin="miter" d="M 2.502041 2.498414 L 159.658694 2.498414 " stroke="#000000" stroke-width="5" stroke-opacity="1" stroke-miterlimit="4"/><path stroke-linecap="round" transform="matrix(-0.749277, 0.00000000000000109, -0.000000000000001091, -0.75, 265.99191, 319.448065)" fill="none" stroke-linejoin="miter" d="M 2.502041 2.498461 L 159.658694 2.498461 " stroke="#000000" stroke-width="5" stroke-opacity="1" stroke-miterlimit="4"/><g clip-path="url(#e2b7667301)"><path fill="#000000" d="M 126.210938 284.425781 L 126.097656 284.34375 C 125.738281 284.046875 125.292969 283.921875 124.875 283.960938 C 124.429688 284.003906 124.023438 284.203125 123.734375 284.554688 L 119.972656 289.027344 L 117.746094 291.746094 L 116.117188 293.730469 L 115.003906 292.53125 L 114.378906 291.871094 L 112.179688 289.550781 C 111.859375 289.210938 111.441406 289.042969 110.996094 289.015625 C 110.578125 288.988281 110.132812 289.167969 109.8125 289.480469 L 109.699219 289.589844 C 109.019531 290.226562 109.003906 291.324219 109.628906 291.996094 L 111.800781 294.304688 L 112.429688 294.996094 L 114.933594 297.65625 C 115.226562 297.949219 115.617188 298.148438 115.992188 298.160156 C 116.019531 298.160156 116.019531 298.160156 116.035156 298.160156 C 116.0625 298.160156 116.078125 298.160156 116.117188 298.160156 C 116.117188 298.160156 116.117188 298.160156 116.144531 298.160156 C 116.214844 298.160156 116.269531 298.160156 116.355469 298.160156 C 116.800781 298.117188 117.203125 297.921875 117.496094 297.570312 L 121.226562 293.09375 L 122.6875 291.308594 L 126.417969 286.832031 C 127.003906 286.117188 126.921875 285.046875 126.210938 284.425781 Z M 126.210938 284.425781 " fill-opacity="1" fill-rule="nonzero"/></g><g clip-path="url(#945c3150d0)"><path fill="#000000" d="M 120.261719 317.683594 L 124.992188 313.035156 C 125.554688 312.484375 125.554688 311.589844 124.992188 311.039062 C 124.433594 310.488281 123.523438 310.488281 122.964844 311.039062 L 118.230469 315.6875 L 113.5 311.039062 C 112.9375 310.488281 112.027344 310.488281 111.46875 311.039062 C 110.90625 311.589844 110.90625 312.484375 111.46875 313.035156 L 116.199219 317.683594 L 111.457031 322.34375 C 110.894531 322.894531 110.894531 323.785156 111.457031 324.335938 C 111.734375 324.613281 112.105469 324.75 112.472656 324.75 C 112.839844 324.75 113.207031 324.613281 113.488281 324.335938 L 118.230469 319.679688 L 122.960938 324.328125 C 123.242188 324.601562 123.609375 324.738281 123.976562 324.738281 C 124.34375 324.738281 124.710938 324.601562 124.992188 324.328125 C 125.554688 323.777344 125.554688 322.882812 124.992188 322.332031 Z M 120.261719 317.683594 " fill-opacity="1" fill-rule="nonzero"/></g><g clip-path="url(#c4e45bef8c)"><path fill="#000000" d="M 209.261719 214.871094 L 209.261719 214.972656 C 209.261719 217.894531 208.6875 220.730469 207.554688 223.398438 C 206.457031 225.976562 204.890625 228.292969 202.894531 230.28125 C 200.902344 232.269531 198.578125 233.828125 195.988281 234.917969 C 193.3125 236.046875 190.464844 236.621094 187.53125 236.621094 C 184.597656 236.621094 181.753906 236.046875 179.074219 234.917969 C 176.488281 233.828125 174.164062 232.269531 172.167969 230.28125 C 170.171875 228.292969 168.605469 225.976562 167.511719 223.398438 C 166.378906 220.730469 165.804688 217.894531 165.804688 214.972656 L 165.804688 214.871094 Z M 209.261719 214.871094 " fill-opacity="1" fill-rule="nonzero"/></g><g clip-path="url(#9eea124505)"><path fill="#ffffff" d="M 110.734375 166.828125 L 159.035156 166.828125 L 159.035156 214.871094 L 110.734375 214.871094 Z M 110.734375 166.828125 " fill-opacity="1" fill-rule="nonzero"/></g><g clip-path="url(#afc4d19106)"><path fill="#ffffff" d="M 216.191406 164.980469 L 264.496094 164.980469 L 264.496094 213.019531 L 216.191406 213.019531 Z M 216.191406 164.980469 " fill-opacity="1" fill-rule="nonzero"/></g><g clip-path="url(#964b443d57)"><path fill="#000000" d="M 156.390625 197.410156 C 157.015625 196.679688 157.585938 195.894531 158.136719 195.085938 C 160.035156 192.28125 161.277344 189.023438 161.804688 185.671875 C 162.367188 182.089844 162.117188 178.390625 160.984375 174.984375 C 160.304688 172.941406 159.292969 170.996094 157.941406 169.242188 C 157.316406 168.394531 156.605469 167.628906 155.882812 166.898438 C 152.007812 163.019531 146.613281 160.601562 141.175781 160.0625 C 135.445312 159.492188 129.304688 161.148438 124.816406 164.792969 C 121.558594 167.449219 119.3125 171.1875 118.257812 175.230469 C 118.214844 175.382812 117.941406 176.640625 117.941406 176.640625 C 117.855469 177.273438 117.75 177.898438 117.726562 178.53125 C 117.101562 186.542969 121.546875 193.207031 128.839844 196.484375 C 137.105469 200.203125 145.046875 195.851562 148.414062 191.421875 C 151.554688 187.292969 151.792969 181.035156 149.128906 176.488281 C 145.726562 170.664062 135.929688 168.4375 131.140625 173.898438 C 128.65625 176.855469 128.292969 181.328125 130.210938 184.59375 C 131.699219 187.21875 134.863281 188.605469 137.496094 188.003906 C 137.925781 187.917969 138.324219 187.753906 138.683594 187.582031 C 139.308594 187.28125 139.890625 186.660156 140.085938 185.972656 C 140.34375 185.078125 140.09375 183.894531 139.15625 183.5 C 138.910156 183.390625 138.605469 183.378906 138.371094 183.519531 C 138.316406 183.550781 138.261719 183.59375 138.25 183.648438 C 138.238281 183.734375 138.304688 183.808594 138.371094 183.851562 C 138.777344 184.1875 139.113281 184.433594 139.179688 185.003906 C 139.277344 185.972656 138.445312 186.507812 137.613281 186.722656 C 136.761719 186.949219 135.855469 186.875 135.003906 186.679688 C 133.847656 186.402344 132.824219 185.777344 132.015625 184.886719 C 129.46875 182.078125 129.617188 177.1875 132.144531 174.371094 C 136.382812 169.8125 144.648438 171.714844 147.8125 176.660156 L 148.046875 177.070312 C 148.15625 177.285156 148.371094 177.714844 148.480469 177.929688 C 149.753906 181.078125 149.796875 184.660156 148.511719 187.820312 C 147.207031 191.011719 144.757812 193.292969 141.714844 194.796875 C 137 197.140625 131.300781 196.214844 127.070312 193.304688 C 119.433594 187.5625 116.90625 175.714844 123.078125 168.414062 C 132.433594 157.320312 151.566406 160.675781 158.210938 174.039062 C 162.011719 182.078125 159.507812 191.550781 153 197.238281 C 148.101562 201.570312 141.628906 204.117188 135.003906 204.085938 C 128.386719 204.011719 121.753906 201.289062 116.863281 196.796875 C 110.691406 191.121094 108.382812 182.328125 110.445312 174.265625 C 111.632812 169.609375 114.394531 165.425781 118.050781 162.308594 C 120.640625 160.050781 123.488281 158.386719 126.628906 157.03125 C 132.457031 154.847656 138.910156 154.859375 144.820312 155.140625 C 145.945312 155.226562 147.109375 155.289062 147.671875 155.203125 C 148.082031 155.140625 147.972656 154.847656 147.238281 154.546875 C 146.859375 154.398438 146.171875 154.171875 145.4375 153.96875 C 143.785156 153.503906 142.113281 153.289062 140.429688 153.171875 C 136.738281 152.925781 133.179688 153.355469 129.738281 154.226562 C 125.085938 155.441406 120.984375 157.890625 117.425781 161.191406 C 117.425781 161.191406 115.742188 162.761719 115.105469 163.460938 C 111.113281 167.824219 108.804688 173.488281 108.523438 179.5625 C 108.382812 182.046875 108.664062 184.433594 109.300781 186.691406 C 112.03125 196.484375 121.308594 203.902344 131.0625 206.277344 C 131.5625 206.386719 132.066406 206.503906 132.585938 206.578125 C 133.105469 206.675781 133.632812 206.730469 134.171875 206.785156 C 134.710938 206.828125 135.261719 206.871094 135.8125 206.871094 C 138.023438 206.925781 140.234375 206.667969 142.394531 206.128906 C 147.746094 204.796875 152.730469 201.730469 156.390625 197.410156 Z M 156.390625 197.410156 " fill-opacity="1" fill-rule="nonzero"/></g><g clip-path="url(#3fb061b077)"><path fill="#000000" d="M 261.574219 197.410156 C 262.199219 196.679688 262.773438 195.894531 263.324219 195.085938 C 265.222656 192.28125 266.460938 189.023438 266.992188 185.671875 C 267.550781 182.089844 267.304688 178.390625 266.171875 174.984375 C 265.492188 172.941406 264.476562 170.996094 263.128906 169.242188 C 262.503906 168.394531 261.789062 167.628906 261.066406 166.898438 C 257.195312 163.019531 251.796875 160.601562 246.359375 160.0625 C 240.628906 159.492188 234.492188 161.148438 230 164.792969 C 226.742188 167.449219 224.5 171.1875 223.441406 175.230469 C 223.398438 175.382812 223.128906 176.640625 223.128906 176.640625 C 223.042969 177.273438 222.933594 177.898438 222.914062 178.53125 C 222.285156 186.542969 226.734375 193.207031 234.027344 196.484375 C 242.292969 200.203125 250.234375 195.851562 253.601562 191.421875 C 256.738281 187.292969 256.976562 181.035156 254.3125 176.488281 C 250.914062 170.664062 241.117188 168.4375 236.324219 173.898438 C 233.84375 176.855469 233.476562 181.328125 235.398438 184.59375 C 236.886719 187.21875 240.046875 188.605469 242.679688 188.003906 C 243.113281 187.917969 243.511719 187.753906 243.867188 187.582031 C 244.492188 187.28125 245.074219 186.660156 245.269531 185.972656 C 245.527344 185.078125 245.28125 183.894531 244.34375 183.5 C 244.09375 183.390625 243.792969 183.378906 243.554688 183.519531 C 243.5 183.550781 243.445312 183.59375 243.4375 183.648438 C 243.425781 183.734375 243.488281 183.808594 243.554688 183.851562 C 243.964844 184.1875 244.300781 184.433594 244.363281 185.003906 C 244.460938 185.972656 243.628906 186.507812 242.800781 186.722656 C 241.945312 186.949219 241.039062 186.875 240.1875 186.679688 C 239.035156 186.402344 238.007812 185.777344 237.199219 184.886719 C 234.652344 182.078125 234.804688 177.1875 237.328125 174.371094 C 241.570312 169.8125 249.835938 171.714844 252.996094 176.660156 L 253.234375 177.070312 C 253.339844 177.285156 253.558594 177.714844 253.664062 177.929688 C 254.9375 181.078125 254.980469 184.660156 253.699219 187.820312 C 252.390625 191.011719 249.941406 193.292969 246.898438 194.796875 C 242.183594 197.140625 236.488281 196.214844 232.257812 193.304688 C 224.617188 187.5625 222.09375 175.714844 228.265625 168.414062 C 237.621094 157.320312 256.75 160.675781 263.398438 174.039062 C 267.195312 182.078125 264.691406 191.550781 258.1875 197.238281 C 253.289062 201.570312 246.8125 204.117188 240.1875 204.085938 C 233.574219 204.011719 226.9375 201.289062 222.050781 196.796875 C 215.878906 191.121094 213.566406 182.328125 215.628906 174.265625 C 216.816406 169.609375 219.578125 165.425781 223.238281 162.308594 C 225.824219 160.050781 228.675781 158.386719 231.816406 157.03125 C 237.640625 154.847656 244.09375 154.859375 250.007812 155.140625 C 251.128906 155.226562 252.292969 155.289062 252.855469 155.203125 C 253.265625 155.140625 253.15625 154.847656 252.425781 154.546875 C 252.046875 154.398438 251.355469 154.171875 250.621094 153.96875 C 248.972656 153.503906 247.296875 153.289062 245.617188 153.171875 C 241.925781 152.925781 238.363281 153.355469 234.921875 154.226562 C 230.273438 155.441406 226.171875 157.890625 222.609375 161.191406 C 222.609375 161.191406 220.925781 162.761719 220.289062 163.460938 C 216.296875 167.824219 213.988281 173.488281 213.707031 179.5625 C 213.566406 182.046875 213.847656 184.433594 214.484375 186.691406 C 217.214844 196.484375 226.496094 203.902344 236.25 206.277344 C 236.746094 206.386719 237.253906 206.503906 237.769531 206.578125 C 238.289062 206.675781 238.816406 206.730469 239.355469 206.785156 C 239.898438 206.828125 240.445312 206.871094 240.996094 206.871094 C 243.210938 206.925781 245.421875 206.667969 247.578125 206.128906 C 252.929688 204.796875 257.917969 201.730469 261.574219 197.410156 Z M 261.574219 197.410156 " fill-opacity="1" fill-rule="nonzero"/></g></svg>